<svg width="134" height="107" viewBox="0 0 134 107" fill="none" xmlns="http://www.w3.org/2000/svg">
<path d="M122.834 48.9968V20.8201C122.834 15.4701 117.362 11.5022 110.718 11.9481H110.383C98.6578 12.7506 80.847 17.521 70.9087 22.5143L69.9595 23.0047C68.3403 23.8072 65.6603 23.8072 64.0412 23.0047L62.6453 22.336C52.707 17.3872 34.952 12.6614 23.227 11.9035C16.5828 11.4576 11.167 15.4701 11.167 20.7756V74.6322C11.167 78.9122 15.522 82.9247 20.882 83.4597L22.5012 83.6381C34.617 84.931 53.3212 89.8351 64.0412 94.5164L64.2645 94.6055C65.772 95.2743 68.1728 95.2743 69.6245 94.6055C80.3445 89.8797 99.1045 84.931 111.276 83.6381L113.119 83.4597C118.479 82.9247 122.834 78.9122 122.834 74.6322V66.9639" stroke="white" stroke-width="4" stroke-linecap="round" stroke-linejoin="round"/>
<path d="M67 24.4762V91.3512" stroke="white" stroke-width="4" stroke-linecap="round" stroke-linejoin="round"/>
<path d="M43.2705 37.8513H30.708" stroke="white" stroke-width="4" stroke-linecap="round" stroke-linejoin="round"/>
<path d="M47.458 51.2263H30.708" stroke="white" stroke-width="4" stroke-linecap="round" stroke-linejoin="round"/>
</svg>
