<svg width="123" height="99" viewBox="0 0 123 99" fill="none" xmlns="http://www.w3.org/2000/svg">
<path d="M41 8.25V20.625" stroke="white" stroke-width="4" stroke-miterlimit="10" stroke-linecap="round" stroke-linejoin="round"/>
<path d="M82 8.25V20.625" stroke="white" stroke-width="4" stroke-miterlimit="10" stroke-linecap="round" stroke-linejoin="round"/>
<path d="M17.9375 37.4962H105.062" stroke="white" stroke-width="4" stroke-miterlimit="10" stroke-linecap="round" stroke-linejoin="round"/>
<path d="M98.4513 65.0513L80.3089 79.6538C79.5914 80.2313 78.925 81.3038 78.7713 82.0876L77.7975 87.6563C77.4388 89.6776 79.1813 91.0801 81.6926 90.7914L88.6114 90.0076C89.5851 89.8839 90.9688 89.3475 91.6351 88.77L109.778 74.1676C112.904 71.6514 114.39 68.7226 109.778 65.0101C105.216 61.3389 101.578 62.535 98.4513 65.0513Z" stroke="white" stroke-width="4" stroke-miterlimit="10" stroke-linecap="round" stroke-linejoin="round"/>
<path d="M95.8376 67.155C97.3751 71.61 101.68 75.075 107.215 76.3125" stroke="white" stroke-width="4" stroke-miterlimit="10" stroke-linecap="round" stroke-linejoin="round"/>
<path d="M61.5 90.75H41C23.0625 90.75 15.375 82.5 15.375 70.125V35.0625C15.375 22.6875 23.0625 14.4375 41 14.4375H82C99.9375 14.4375 107.625 22.6875 107.625 35.0625V49.5" stroke="white" stroke-width="4" stroke-miterlimit="10" stroke-linecap="round" stroke-linejoin="round"/>
<path d="M61.4767 56.5126H61.5228" stroke="white" stroke-width="4" stroke-linecap="round" stroke-linejoin="round"/>
<path d="M42.5085 56.5126H42.5545" stroke="white" stroke-width="4" stroke-linecap="round" stroke-linejoin="round"/>
<path d="M42.5085 68.8876H42.5545" stroke="white" stroke-width="4" stroke-linecap="round" stroke-linejoin="round"/>
</svg>
